# xmcd
#
# Track frame offsets: 
#        150
#        19042
#        36794
#        56162
#        72254
#        81556
#        101907
#        116632
#        134914
#        155469
#        168071
#        191669
#
# Disc length: 2729 seconds
#
# Revision: 0
# Processed by: cddbd v1.5.2PL0 Copyright (c) Steve Scherf et al.
# Submitted via: ExactAudioCopy v1.0b1
#
DISCID=ac0aa70c
DTITLE=CunninLynguists - Oneirology (Instrumentals)
DYEAR=2011
DGENRE=Hip-Hop
TTITLE0=Predormitum (Prologue) (Instrumental)
TTITLE1=Darkness (Dream On) (Instrumental)
TTITLE2=Hard As They Come (Act I) (Instrumental)
TTITLE3=Murder (Act II) (Instrumental)
TTITLE4=My Habit (I Haven't Changed) (Instrumental)
TTITLE5=Get Ignorant (Instrumental)
TTITLE6=Shattered Dreams (Instrumental)
TTITLE7=Stars Shine Brightest (In The Darkest Of Night) (Instrumental)
TTITLE8=Enemies With Benefits (Instrumental)
TTITLE9=Looking Back (Instrumental)
TTITLE10=Dreams (Instrumental)
TTITLE11=Embers (Instrumental)
EXTD=
EXTT0=
EXTT1=
EXTT2=
EXTT3=
EXTT4=
EXTT5=
EXTT6=
EXTT7=
EXTT8=
EXTT9=
EXTT10=
EXTT11=
PLAYORDER=
